<svg width="48" height="48" viewBox="0 0 48 48" fill="none" xmlns="http://www.w3.org/2000/svg">
<mask id="path-1-inside-1_6_1" fill="white">
<path d="M12 18C12 16.8954 12.8954 16 14 16H21C22.1046 16 23 16.8954 23 18V27H12V18Z"/>
</mask>
<path d="M12 18C12 16.8954 12.8954 16 14 16H21C22.1046 16 23 16.8954 23 18V27H12V18Z" stroke="#FF498B" stroke-width="6" mask="url(#path-1-inside-1_6_1)"/>
<mask id="path-2-inside-2_6_1" fill="white">
<path d="M25 18C25 16.8954 25.8954 16 27 16H34C35.1046 16 36 16.8954 36 18V27H25V18Z"/>
</mask>
<path d="M25 18C25 16.8954 25.8954 16 27 16H34C35.1046 16 36 16.8954 36 18V27H25V18Z" stroke="#FF498B" stroke-width="6" mask="url(#path-2-inside-2_6_1)"/>
<path d="M7.5 11C7.5 6.30558 11.3056 2.5 16 2.5H32C36.6944 2.5 40.5 6.30558 40.5 11V25.5H7.5V11Z" stroke="#152C5B" stroke-width="3"/>
<mask id="path-4-inside-3_6_1" fill="white">
<path d="M0 28C0 25.7909 1.79086 24 4 24H44C46.2091 24 48 25.7909 48 28V38C48 39.1046 47.1046 40 46 40H2C0.895431 40 0 39.1046 0 38V28Z"/>
</mask>
<path d="M0 28C0 25.7909 1.79086 24 4 24H44C46.2091 24 48 25.7909 48 28V38C48 39.1046 47.1046 40 46 40H2C0.895431 40 0 39.1046 0 38V28Z" stroke="#152C5B" stroke-width="6" mask="url(#path-4-inside-3_6_1)"/>
<line x1="5.5" y1="39.5" x2="5.5" y2="46.5" stroke="#152C5B" stroke-width="3" stroke-linecap="round"/>
<line x1="41.5" y1="43.5" x2="6.5" y2="43.5" stroke="#152C5B" stroke-width="3" stroke-linecap="round"/>
<line x1="42.5" y1="39.5" x2="42.5" y2="46.5" stroke="#152C5B" stroke-width="3" stroke-linecap="round"/>
</svg>
