<svg width="48" height="48" viewBox="0 0 48 48" fill="none" xmlns="http://www.w3.org/2000/svg">
<path d="M4.18156 22.2816C4.4988 21.2242 5.4721 20.5 6.57612 20.5H41.4239C42.5279 20.5 43.5012 21.2242 43.8184 22.2816L45.0184 26.2816C45.4997 27.8857 44.2985 29.5 42.6239 29.5H5.37612C3.70147 29.5 2.50035 27.8857 2.98156 26.2816L4.18156 22.2816Z" stroke="#152C5B" stroke-width="3"/>
<path d="M7.5 29.5H12.5V43C12.5 44.3807 11.3807 45.5 10 45.5C8.61929 45.5 7.5 44.3807 7.5 43V29.5Z" stroke="#152C5B" stroke-width="3"/>
<path d="M17 13V20" stroke="#152C5B" stroke-width="3"/>
<path d="M30 13V20" stroke="#152C5B" stroke-width="3"/>
<mask id="path-5-inside-1_6_51" fill="white">
<path d="M13 5C13 4.44771 13.4477 4 14 4H20C20.5523 4 21 4.44772 21 5V11C21 13.2091 19.2091 15 17 15C14.7909 15 13 13.2091 13 11V5Z"/>
</mask>
<path d="M13 5C13 4.44771 13.4477 4 14 4H20C20.5523 4 21 4.44772 21 5V11C21 13.2091 19.2091 15 17 15C14.7909 15 13 13.2091 13 11V5Z" stroke="#FF498B" stroke-width="6" mask="url(#path-5-inside-1_6_51)"/>
<path d="M13 5C13 4.44771 13.4477 4 14 4H20C20.5523 4 21 4.44772 21 5V11C21 13.2091 19.2091 15 17 15C14.7909 15 13 13.2091 13 11V5Z" stroke="#FF498B" stroke-width="6" mask="url(#path-5-inside-1_6_51)"/>
<mask id="path-6-inside-2_6_51" fill="white">
<path d="M26 5C26 4.44771 26.4477 4 27 4H33C33.5523 4 34 4.44772 34 5V11C34 13.2091 32.2091 15 30 15C27.7909 15 26 13.2091 26 11V5Z"/>
</mask>
<path d="M26 5C26 4.44771 26.4477 4 27 4H33C33.5523 4 34 4.44772 34 5V11C34 13.2091 32.2091 15 30 15C27.7909 15 26 13.2091 26 11V5Z" stroke="#FF498B" stroke-width="6" mask="url(#path-6-inside-2_6_51)"/>
<path d="M26 5C26 4.44771 26.4477 4 27 4H33C33.5523 4 34 4.44772 34 5V11C34 13.2091 32.2091 15 30 15C27.7909 15 26 13.2091 26 11V5Z" stroke="#FF498B" stroke-width="6" mask="url(#path-6-inside-2_6_51)"/>
<path d="M36.5 29.5H41.5V43C41.5 44.3807 40.3807 45.5 39 45.5C37.6193 45.5 36.5 44.3807 36.5 43V29.5Z" stroke="#152C5B" stroke-width="3"/>
</svg>
