<svg width="48" height="48" viewBox="0 0 48 48" fill="none" xmlns="http://www.w3.org/2000/svg">
<path d="M41 21.5V7.14771C41 6.5949 40.7712 6.06673 40.3679 5.68864L38.8679 4.28239C38.0986 3.56116 36.9014 3.56116 36.1321 4.28239L34 6.28125" stroke="#FF498B" stroke-width="3" stroke-linecap="round"/>
<path d="M1.5 27C1.5 28.3807 2.61929 29.5 4 29.5H44C45.3807 29.5 46.5 28.3807 46.5 27V25C46.5 23.6193 45.3807 22.5 44 22.5H4C2.61929 22.5 1.5 23.6193 1.5 25V27Z" stroke="#152C5B" stroke-width="3"/>
<path d="M5.5 29.5H42.5V39C42.5 40.933 40.933 42.5 39 42.5H9C7.067 42.5 5.5 40.933 5.5 39V29.5Z" stroke="#152C5B" stroke-width="3"/>
<path d="M12 43L12 46.5" stroke="#152C5B" stroke-width="3" stroke-linecap="round"/>
<path d="M37 43L37 46.5" stroke="#152C5B" stroke-width="3" stroke-linecap="round"/>
</svg>
