<svg width="48" height="48" viewBox="0 0 48 48" fill="none" xmlns="http://www.w3.org/2000/svg">
<path d="M40 6.5C43.5898 6.5 46.5 9.41015 46.5 13L46.5 27C46.5 30.5899 43.5898 33.5 40 33.5L8 33.5C4.41015 33.5 1.5 30.5899 1.5 27L1.5 13C1.5 9.41015 4.41015 6.5 8 6.5L40 6.5Z" stroke="#152C5B" stroke-width="3"/>
<path d="M13 43L35 43" stroke="#152C5B" stroke-width="3" stroke-linecap="round"/>
<line x1="18.5" y1="41.5" x2="18.5" y2="34.5" stroke="#152C5B" stroke-width="3" stroke-linecap="round"/>
<line x1="30.5" y1="41.5" x2="30.5" y2="34.5" stroke="#152C5B" stroke-width="3" stroke-linecap="round"/>
<path d="M30.25 19.567C30.5833 19.7594 30.5833 20.2406 30.25 20.433L21.25 25.6292C20.9167 25.8216 20.5 25.5811 20.5 25.1962V14.8038C20.5 14.4189 20.9167 14.1784 21.25 14.3708L30.25 19.567Z" stroke="#FF498B" stroke-width="3"/>
</svg>
